<?xml version="1.0" standalone="no"?>
<!DOCTYPE svg PUBLIC "-//W3C//DTD SVG 20010904//EN"
 "http://www.w3.org/TR/2001/REC-SVG-20010904/DTD/svg10.dtd">
<svg version="1.0" xmlns="http://www.w3.org/2000/svg"
 width="300.000000pt" height="181.000000pt" viewBox="0 0 300.000000 181.000000"
 preserveAspectRatio="xMidYMid meet">
<metadata>
Created by potrace 1.10, written by Peter Selinger 2001-2011
</metadata>
<g transform="translate(0.000000,181.000000) scale(0.100000,-0.100000)"
fill="#000000" stroke="none">
<path d="M800 1671 c-45 -14 -84 -39 -112 -68 -14 -15 -90 -131 -169 -258 -78
-126 -182 -295 -232 -374 -109 -177 -127 -213 -126 -271 0 -89 43 -167 122
-221 47 -32 54 -34 136 -34 142 0 165 21 335 293 l119 191 211 -340 c116 -186
224 -353 240 -370 89 -94 246 -103 348 -19 23 19 112 152 253 379 l218 349
119 -191 c66 -106 132 -205 147 -221 88 -97 266 -101 365 -8 70 66 97 200 57
287 -38 83 -484 791 -518 822 -101 91 -272 80 -362 -23 -18 -21 -110 -163
-203 -314 -93 -151 -179 -285 -190 -297 -26 -27 -68 -30 -96 -5 -11 9 -91 132
-177 272 -213 347 -223 360 -277 393 -38 24 -62 30 -115 33 -38 2 -79 0 -93
-5z m179 -47 c44 -22 61 -39 105 -108 97 -148 206 -327 206 -336 0 -4 4 -10 8
-12 5 -1 35 -48 67 -102 115 -193 177 -185 310 39 33 55 63 102 68 103 4 2 7
8 7 12 0 10 140 239 195 318 20 29 55 65 77 80 36 23 51 27 118 27 113 0 153
-28 238 -165 36 -58 104 -168 152 -245 48 -77 109 -175 136 -218 137 -220 143
-231 152 -278 15 -78 -3 -139 -57 -201 -82 -94 -253 -93 -334 2 -17 21 -72
104 -122 185 -49 81 -107 166 -127 189 l-37 41 -25 -25 c-13 -14 -60 -83 -105
-155 -44 -71 -85 -135 -91 -142 -5 -7 -10 -14 -10 -16 0 -11 -214 -345 -235
-367 -52 -55 -88 -70 -169 -70 -113 0 -149 31 -277 235 -57 91 -113 180 -123
198 -86 143 -207 325 -220 330 -23 9 -53 -27 -145 -172 -50 -78 -91 -145 -91
-147 0 -11 -48 -72 -79 -100 -40 -37 -89 -54 -161 -54 -146 0 -255 152 -209
291 6 19 62 114 123 211 61 98 116 186 121 195 17 30 180 294 218 355 79 123
197 161 316 102z"/>
</g>
</svg>
